HIERARCHY
ROOT mixamorig:Hips
{
	OFFSET 0.000000 201.639420 0.000000
	CHANNELS 6 Xposition Yposition Zposition Xrotation Yrotation Zrotation
	JOINT mixamorig:Spine
	{
		OFFSET 0.006200 19.524994 -2.481800
		CHANNELS 3 Xrotation Yrotation Zrotation
		JOINT mixamorig:Spine1
		{
			OFFSET -0.000900 22.835007 -2.825400
			CHANNELS 3 Xrotation Yrotation Zrotation
			JOINT mixamorig:Spine2
			{
				OFFSET -0.020600 26.552490 -3.193300
				CHANNELS 3 Xrotation Yrotation Zrotation
				JOINT mixamorig:Neck
				{
					OFFSET -0.060000 30.701813 1.352200
					CHANNELS 3 Xrotation Yrotation Zrotation
					JOINT mixamorig:Head
					{
						OFFSET -0.087200 22.547607 3.670900
						CHANNELS 3 Xrotation Yrotation Zrotation
						JOINT mixamorig:HeadTop_End
						{
							OFFSET -0.830600 40.355194 7.893500
							CHANNELS 3 Xrotation Yrotation Zrotation
							End Site
							{
								OFFSET 0.000000 30.592346 0.000000
							}
						}
						JOINT mixamorig:RightEye
						{
							OFFSET -6.302100 18.118591 16.197100
							CHANNELS 3 Xrotation Yrotation Zrotation
							End Site
							{
								OFFSET 0.000000 30.592346 0.000000
							}
						}
						JOINT mixamorig:LeftEye
						{
							OFFSET 6.741500 18.382690 16.401899
							CHANNELS 3 Xrotation Yrotation Zrotation
							End Site
							{
								OFFSET 0.000000 30.592346 0.000000
							}
						}
					}
				}
				JOINT mixamorig:LeftShoulder
				{
					OFFSET 11.924900 18.230499 1.425400
					CHANNELS 3 Xrotation Yrotation Zrotation
					JOINT mixamorig:LeftArm
					{
						OFFSET 25.435989 -0.697632 -5.229300
						CHANNELS 3 Xrotation Yrotation Zrotation
						JOINT mixamorig:LeftForeArm
						{
							OFFSET 54.684776 0.000000 0.000000
							CHANNELS 3 Xrotation Yrotation Zrotation
							JOINT mixamorig:LeftHand
							{
								OFFSET 55.098175 0.000000 0.000000
								CHANNELS 3 Xrotation Yrotation Zrotation
								JOINT mixamorig:LeftHandMiddle1
								{
									OFFSET 23.369751 0.000000 0.000000
									CHANNELS 3 Xrotation Yrotation Zrotation
									JOINT mixamorig:LeftHandMiddle2
									{
										OFFSET 6.378677 0.000000 0.000000
										CHANNELS 3 Xrotation Yrotation Zrotation
										JOINT mixamorig:LeftHandMiddle3
										{
											OFFSET 6.148331 0.000000 0.000000
											CHANNELS 3 Xrotation Yrotation Zrotation
											JOINT mixamorig:LeftHandMiddle4
											{
												OFFSET 6.582504 0.000000 0.000000
												CHANNELS 3 Xrotation Yrotation Zrotation
												End Site
												{
													OFFSET -1.168900 6.395691 1.028606
												}
											}
										}
									}
								}
								JOINT mixamorig:LeftHandThumb1
								{
									OFFSET 7.235672 -3.848206 5.434273
									CHANNELS 3 Xrotation Yrotation Zrotation
									JOINT mixamorig:LeftHandThumb2
									{
										OFFSET 6.568451 -3.792297 3.792300
										CHANNELS 3 Xrotation Yrotation Zrotation
										JOINT mixamorig:LeftHandThumb3
										{
											OFFSET 6.063080 -3.500519 3.500518
											CHANNELS 3 Xrotation Yrotation Zrotation
											JOINT mixamorig:LeftHandThumb4
											{
												OFFSET 4.793182 -2.767334 2.767349
												CHANNELS 3 Xrotation Yrotation Zrotation
												End Site
												{
													OFFSET 0.101639 6.054260 1.275483
												}
											}
										}
									}
								}
								JOINT mixamorig:LeftHandIndex1
								{
									OFFSET 23.101074 -0.309540 4.992809
									CHANNELS 3 Xrotation Yrotation Zrotation
									JOINT mixamorig:LeftHandIndex2
									{
										OFFSET 6.226883 0.000000 0.000000
										CHANNELS 3 Xrotation Yrotation Zrotation
										JOINT mixamorig:LeftHandIndex3
										{
											OFFSET 6.094330 0.000000 0.000000
											CHANNELS 3 Xrotation Yrotation Zrotation
											JOINT mixamorig:LeftHandIndex4
											{
												OFFSET 5.482605 0.000000 0.000000
												CHANNELS 3 Xrotation Yrotation Zrotation
												End Site
												{
													OFFSET -1.427902 5.233032 0.797164
												}
											}
										}
									}
								}
								JOINT mixamorig:LeftHandRing1
								{
									OFFSET 22.299240 0.021149 -3.964172
									CHANNELS 3 Xrotation Yrotation Zrotation
									JOINT mixamorig:LeftHandRing2
									{
										OFFSET 6.321869 0.000000 0.000000
										CHANNELS 3 Xrotation Yrotation Zrotation
										JOINT mixamorig:LeftHandRing3
										{
											OFFSET 5.899796 0.000000 0.000000
											CHANNELS 3 Xrotation Yrotation Zrotation
											JOINT mixamorig:LeftHandRing4
											{
												OFFSET 6.517899 0.000000 0.000000
												CHANNELS 3 Xrotation Yrotation Zrotation
												End Site
												{
													OFFSET -1.637299 6.232208 0.980890
												}
											}
										}
									}
								}
								JOINT mixamorig:LeftHandPinky1
								{
									OFFSET 20.463791 -0.302338 -8.562233
									CHANNELS 3 Xrotation Yrotation Zrotation
									JOINT mixamorig:LeftHandPinky2
									{
										OFFSET 6.908646 0.000000 0.000000
										CHANNELS 3 Xrotation Yrotation Zrotation
										JOINT mixamorig:LeftHandPinky3
										{
											OFFSET 4.622849 0.000000 0.000000
											CHANNELS 3 Xrotation Yrotation Zrotation
											JOINT mixamorig:LeftHandPinky4
											{
												OFFSET 5.216080 0.000000 0.000000
												CHANNELS 3 Xrotation Yrotation Zrotation
												End Site
												{
													OFFSET -0.606308 5.116241 0.814926
												}
											}
										}
									}
								}
							}
						}
					}
				}
				JOINT mixamorig:RightShoulder
				{
					OFFSET -12.001300 18.284088 1.348900
					CHANNELS 3 Xrotation Yrotation Zrotation
					JOINT mixamorig:RightArm
					{
						OFFSET -25.308500 -0.751312 -5.164599
						CHANNELS 3 Xrotation Yrotation Zrotation
						JOINT mixamorig:RightForeArm
						{
							OFFSET -54.684429 0.000000 0.000000
							CHANNELS 3 Xrotation Yrotation Zrotation
							JOINT mixamorig:RightHand
							{
								OFFSET -55.150291 0.000000 0.000000
								CHANNELS 3 Xrotation Yrotation Zrotation
								JOINT mixamorig:RightHandMiddle1
								{
									OFFSET -23.317566 0.000000 0.000000
									CHANNELS 3 Xrotation Yrotation Zrotation
									JOINT mixamorig:RightHandMiddle2
									{
										OFFSET -6.378403 0.000000 0.000000
										CHANNELS 3 Xrotation Yrotation Zrotation
										JOINT mixamorig:RightHandMiddle3
										{
											OFFSET -6.148193 0.000000 0.000000
											CHANNELS 3 Xrotation Yrotation Zrotation
											JOINT mixamorig:RightHandMiddle4
											{
												OFFSET -6.583389 0.000000 0.000000
												CHANNELS 3 Xrotation Yrotation Zrotation
												End Site
												{
													OFFSET 1.171692 6.395905 1.029786
												}
											}
										}
									}
								}
								JOINT mixamorig:RightHandThumb1
								{
									OFFSET -7.190521 -3.860474 5.435846
									CHANNELS 3 Xrotation Yrotation Zrotation
									JOINT mixamorig:RightHandThumb2
									{
										OFFSET -6.567429 -3.791718 3.791708
										CHANNELS 3 Xrotation Yrotation Zrotation
										JOINT mixamorig:RightHandThumb3
										{
											OFFSET -6.062469 -3.500153 3.500166
											CHANNELS 3 Xrotation Yrotation Zrotation
											JOINT mixamorig:RightHandThumb4
											{
												OFFSET -4.792618 -2.767029 2.767022
												CHANNELS 3 Xrotation Yrotation Zrotation
												End Site
												{
													OFFSET -0.100327 6.053253 1.276754
												}
											}
										}
									}
								}
								JOINT mixamorig:RightHandIndex1
								{
									OFFSET -23.048981 -0.310791 4.992554
									CHANNELS 3 Xrotation Yrotation Zrotation
									JOINT mixamorig:RightHandIndex2
									{
										OFFSET -6.227539 0.000000 0.000000
										CHANNELS 3 Xrotation Yrotation Zrotation
										JOINT mixamorig:RightHandIndex3
										{
											OFFSET -6.095047 0.000000 0.000000
											CHANNELS 3 Xrotation Yrotation Zrotation
											JOINT mixamorig:RightHandIndex4
											{
												OFFSET -5.484772 0.000000 0.000000
												CHANNELS 3 Xrotation Yrotation Zrotation
												End Site
												{
													OFFSET 1.420593 5.237305 0.797056
												}
											}
										}
									}
								}
								JOINT mixamorig:RightHandRing1
								{
									OFFSET -22.246323 0.020569 -3.963762
									CHANNELS 3 Xrotation Yrotation Zrotation
									JOINT mixamorig:RightHandRing2
									{
										OFFSET -6.322128 0.000000 0.000000
										CHANNELS 3 Xrotation Yrotation Zrotation
										JOINT mixamorig:RightHandRing3
										{
											OFFSET -5.900024 0.000000 0.000000
											CHANNELS 3 Xrotation Yrotation Zrotation
											JOINT mixamorig:RightHandRing4
											{
												OFFSET -6.518356 0.000000 0.000000
												CHANNELS 3 Xrotation Yrotation Zrotation
												End Site
												{
													OFFSET 1.636398 6.232697 0.982186
												}
											}
										}
									}
								}
								JOINT mixamorig:RightHandPinky1
								{
									OFFSET -20.411011 -0.303314 -8.561701
									CHANNELS 3 Xrotation Yrotation Zrotation
									JOINT mixamorig:RightHandPinky2
									{
										OFFSET -6.907349 0.000000 0.000000
										CHANNELS 3 Xrotation Yrotation Zrotation
										JOINT mixamorig:RightHandPinky3
										{
											OFFSET -4.623840 0.000000 0.000000
											CHANNELS 3 Xrotation Yrotation Zrotation
											JOINT mixamorig:RightHandPinky4
											{
												OFFSET -5.218353 0.000000 0.000000
												CHANNELS 3 Xrotation Yrotation Zrotation
												End Site
												{
													OFFSET 0.602097 5.118835 0.816273
												}
											}
										}
									}
								}
							}
						}
					}
				}
			}
		}
	}
	JOINT mixamorig:LeftUpLeg
	{
		OFFSET 18.168400 -13.561905 -0.039000
		CHANNELS 3 Xrotation Yrotation Zrotation
		JOINT mixamorig:LeftLeg
		{
			OFFSET 0.577358 -80.825211 -3.695000
			CHANNELS 3 Xrotation Yrotation Zrotation
			JOINT mixamorig:LeftFoot
			{
				OFFSET -0.577356 -83.370262 -6.520700
				CHANNELS 3 Xrotation Yrotation Zrotation
				JOINT mixamorig:LeftToeBase
				{
					OFFSET 0.750401 -20.798306 25.135401
					CHANNELS 3 Xrotation Yrotation Zrotation
					JOINT mixamorig:LeftToe_End
					{
						OFFSET -0.000500 0.001200 19.917799
						CHANNELS 3 Xrotation Yrotation Zrotation
						End Site
						{
							OFFSET 0.000000 19.917805 0.000000
						}
					}
				}
			}
		}
	}
	JOINT mixamorig:RightUpLeg
	{
		OFFSET -18.162500 -13.585098 -0.041000
		CHANNELS 3 Xrotation Yrotation Zrotation
		JOINT mixamorig:RightLeg
		{
			OFFSET -0.595024 -80.945297 -3.631900
			CHANNELS 3 Xrotation Yrotation Zrotation
			JOINT mixamorig:RightFoot
			{
				OFFSET 0.595024 -83.218193 -6.561200
				CHANNELS 3 Xrotation Yrotation Zrotation
				JOINT mixamorig:RightToeBase
				{
					OFFSET -0.753601 -20.807106 25.115000
					CHANNELS 3 Xrotation Yrotation Zrotation
					JOINT mixamorig:RightToe_End
					{
						OFFSET 0.000299 0.001700 19.918200
						CHANNELS 3 Xrotation Yrotation Zrotation
						End Site
						{
							OFFSET 0.000000 19.918203 0.000000
						}
					}
				}
			}
		}
	}
}
MOTION
Frames: 6
Frame Time: 0.033333
22.446659 176.243271 71.052727 -2.470078 -23.267760 -3.412905 22.648916 3.196970 -4.738938 0.254816 0.383594 2.193674 0.237969 0.478055 2.177651 8.347560 -0.035515 -3.776183 12.902998 -1.432507 -10.435680 -0.000000 -0.000002 0.000001 -0.000000 -0.000002 0.000001 -0.000000 -0.000002 0.000001 1.116105 -4.039937 -1.216444 -32.874981 -15.005475 -48.170732 0.000023 -120.840322 0.000022 3.349996 -8.117149 17.594424 2.092863 4.947786 -46.064435 5.220665 6.678764 -76.003565 2.704743 5.473692 -52.565119 -0.000001 0.000001 0.000004 2.825143 10.329738 0.827378 6.817483 15.268493 2.201412 16.493901 15.543820 -13.682343 0.000001 -0.000000 0.000000 2.622347 5.409898 -51.696254 5.986513 6.823048 -82.511656 3.423548 5.953028 -59.776047 0.000000 -0.000001 -0.000001 2.389470 5.219534 -50.118801 5.674820 6.775128 -79.879192 2.984478 5.675918 -55.444071 -0.000000 0.000001 -0.000001 3.934129 6.575422 -48.514468 5.282894 2.607194 -76.579275 2.606548 5.397451 -51.528545 0.000001 -0.000000 0.000001 2.447613 18.103008 -6.725288 -19.717583 11.054472 57.125735 0.000029 120.161606 -0.000042 -7.045543 12.738868 -22.478163 8.473298 -6.779629 102.897497 9.760544 -6.356203 113.927733 9.819569 -6.540610 113.765086 -0.000001 -0.000000 -0.000000 32.408411 -13.409013 14.972866 6.468316 -18.913443 -13.319965 60.020547 -57.623130 30.238057 -0.000001 0.000001 0.000000 8.398445 -6.795918 102.075975 9.722796 -6.372657 113.587501 9.722815 -6.372705 113.587480 -0.000001 0.000001 -0.000007 5.565204 -7.132966 96.068182 8.903116 -6.668858 106.378721 8.762278 -6.407997 105.842831 -0.000000 0.000001 -0.000001 -0.217578 -9.282880 106.046712 7.927445 -6.879221 98.121364 7.927439 -6.879201 98.121336 0.000000 0.000002 -0.000001 -45.909441 4.003499 18.703440 46.062669 -8.044134 5.991251 2.430945 0.405658 -13.013123 -3.832096 -0.000000 0.000002 0.000000 -0.000000 -0.000000 -15.530015 -11.001339 -26.080452 55.549304 4.963216 -6.958423 -8.367900 -1.863452 15.665756 -10.147761 -1.114210 9.885991 0.000000 -0.000001 0.000001 
20.740013 175.430939 67.136200 -3.584272 -26.833330 -3.363881 21.916335 3.014743 -4.678114 0.334976 0.373226 1.997609 0.320071 0.456774 1.983117 8.258090 0.190993 -4.618705 12.999107 -0.649813 -12.475553 0.000003 0.000000 -0.000000 0.000003 0.000000 -0.000000 0.000003 0.000000 -0.000000 1.109630 -3.847840 -1.453198 -31.876896 -12.843785 -49.747099 0.000011 -121.658551 0.000016 3.770295 -8.465047 17.891219 2.092862 4.947786 -46.064432 5.220664 6.678764 -76.003558 2.704745 5.473693 -52.565119 0.000001 0.000003 0.000001 2.825140 10.329745 0.827374 6.817484 15.268490 2.201413 16.493899 15.543820 -13.682347 0.000001 -0.000002 -0.000003 2.622347 5.409900 -51.696254 5.986517 6.823050 -82.511663 3.423548 5.953026 -59.776053 -0.000001 0.000001 0.000001 2.389470 5.219532 -50.118798 5.674823 6.775128 -79.879192 2.984482 5.675922 -55.444074 -0.000001 -0.000000 0.000001 3.934129 6.575427 -48.514461 5.282895 2.607192 -76.579275 2.606549 5.397453 -51.528539 -0.000001 -0.000002 -0.000002 2.192345 17.344437 -7.185788 -20.221745 15.152293 60.764607 0.000031 121.029887 -0.000021 -5.176644 14.192120 -24.577589 8.473299 -6.779636 102.897503 9.760549 -6.356201 113.927726 9.819565 -6.540615 113.765086 0.000001 0.000001 0.000003 32.408407 -13.409008 14.972866 6.468313 -18.913441 -13.319966 60.020547 -57.623130 30.238053 -0.000001 0.000002 0.000000 8.398445 -6.795920 102.075982 9.722795 -6.372661 113.587501 9.722817 -6.372702 113.587473 -0.000001 0.000000 -0.000002 5.565204 -7.132963 96.068182 8.903117 -6.668859 106.378721 8.762274 -6.407995 105.842824 0.000002 -0.000001 -0.000001 -0.217577 -9.282874 106.046706 7.927450 -6.879220 98.121364 7.927439 -6.879209 98.121343 0.000001 -0.000003 0.000002 -44.372508 4.761588 20.664010 44.420453 -6.704286 6.318002 3.452566 0.325533 -14.862230 -3.542310 -0.000000 0.000004 0.000000 -0.000001 0.000000 -15.339577 -10.966858 -26.083014 55.452120 3.561722 -7.165365 -8.803834 -2.301951 18.612105 -12.649946 -1.194057 10.247973 -0.000000 0.000001 0.000000 
18.244209 174.697495 62.314804 -4.246712 -29.150988 -2.998570 20.857902 3.142005 -4.640216 0.648426 0.401636 1.838682 0.633916 0.477263 1.825874 8.051695 0.381867 -5.311444 12.928597 -0.184832 -13.565337 -0.000001 -0.000001 0.000001 -0.000001 -0.000001 0.000001 -0.000001 -0.000001 0.000001 1.118065 -3.712478 -1.773381 -30.691349 -10.997316 -51.627023 0.000044 -122.545205 0.000041 3.730382 -8.723808 18.287980 2.092865 4.947787 -46.064432 5.220658 6.678765 -76.003558 2.704746 5.473692 -52.565119 -0.000000 -0.000001 -0.000001 2.825144 10.329743 0.827374 6.817483 15.268493 2.201406 16.493896 15.543823 -13.682350 0.000001 0.000001 -0.000001 2.622347 5.409904 -51.696250 5.986518 6.823050 -82.511656 3.423550 5.953028 -59.776053 0.000000 -0.000001 -0.000003 2.389471 5.219535 -50.118794 5.674821 6.775128 -79.879199 2.984478 5.675916 -55.444074 -0.000002 -0.000000 -0.000003 3.934132 6.575426 -48.514465 5.282891 2.607192 -76.579275 2.606548 5.397450 -51.528542 -0.000002 -0.000002 0.000002 2.181243 17.383050 -7.267106 -19.723112 18.006122 62.922059 -0.000005 121.462115 -0.000005 -2.475701 14.513997 -25.581377 8.473297 -6.779633 102.897497 9.760545 -6.356201 113.927726 9.819567 -6.540607 113.765086 -0.000003 0.000001 0.000001 32.408404 -13.409008 14.972866 6.468318 -18.913443 -13.319962 60.020547 -57.623130 30.238053 0.000001 -0.000001 -0.000000 8.398446 -6.795921 102.075982 9.722789 -6.372658 113.587508 9.722817 -6.372703 113.587480 0.000001 0.000003 0.000001 5.565203 -7.132966 96.068182 8.903127 -6.668858 106.378721 8.762272 -6.407997 105.842831 -0.000003 0.000004 0.000003 -0.217579 -9.282879 106.046706 7.927443 -6.879221 98.121364 7.927439 -6.879208 98.121336 -0.000002 0.000001 -0.000001 -43.036332 5.626407 22.269026 41.367737 -6.221599 6.558246 5.906203 0.004599 -16.870369 -3.596201 0.000001 -0.000008 0.000000 -0.000002 -0.000000 -14.223890 -11.388094 -25.326234 53.512295 1.123671 -6.767388 -11.351777 -3.298430 22.360072 -16.482986 -1.040124 7.069339 -0.000000 0.000001 -0.000000 
15.490747 174.248978 56.736454 -4.549522 -30.620424 -2.327357 19.841336 3.537774 -4.424838 1.096582 0.468763 1.527172 1.082681 0.532450 1.516300 7.721071 0.608344 -5.932421 13.091931 0.216147 -13.946099 0.000001 -0.000001 0.000001 0.000001 -0.000001 0.000001 0.000001 -0.000001 0.000001 1.126830 -3.581443 -2.093923 -29.418584 -9.552492 -53.143882 0.000020 -123.531238 0.000019 3.515825 -9.052444 18.716994 2.092862 4.947790 -46.064432 5.220662 6.678766 -76.003558 2.704746 5.473695 -52.565119 0.000001 0.000000 0.000000 2.825141 10.329741 0.827377 6.817481 15.268492 2.201415 16.493896 15.543823 -13.682345 -0.000001 -0.000001 -0.000000 2.622348 5.409900 -51.696250 5.986517 6.823049 -82.511656 3.423547 5.953026 -59.776047 -0.000000 -0.000001 -0.000002 2.389470 5.219530 -50.118798 5.674818 6.775128 -79.879192 2.984481 5.675918 -55.444071 -0.000000 0.000001 -0.000001 3.934130 6.575423 -48.514465 5.282894 2.607193 -76.579268 2.606549 5.397450 -51.528535 0.000000 0.000000 -0.000002 2.338507 18.483836 -7.534967 -19.072188 18.805623 64.485435 0.000032 121.839947 -0.000021 -0.046207 13.963302 -25.918696 8.473300 -6.779631 102.897497 9.760542 -6.356203 113.927726 9.819568 -6.540606 113.765092 0.000005 0.000002 0.000000 32.408411 -13.409009 14.972862 6.468316 -18.913444 -13.319964 60.020547 -57.623130 30.238060 -0.000001 0.000003 0.000001 8.398447 -6.795916 102.075982 9.722796 -6.372659 113.587501 9.722816 -6.372707 113.587480 0.000003 0.000001 0.000003 5.565205 -7.132965 96.068175 8.903116 -6.668858 106.378721 8.762275 -6.408000 105.842831 0.000001 0.000001 0.000000 -0.217576 -9.282874 106.046706 7.927437 -6.879217 98.121364 7.927438 -6.879209 98.121336 -0.000003 0.000001 0.000002 -41.690805 6.715052 23.464369 36.647390 -5.543855 6.592959 10.080409 -0.668696 -18.191756 -4.094188 -0.000004 0.000000 -0.000000 0.000000 0.000000 -13.014604 -11.781328 -24.325353 51.655245 -1.781637 -6.179715 -19.240739 -5.452939 24.555541 -10.952940 -0.016846 1.247831 0.000000 0.000001 -0.000000 
13.053905 174.266541 50.841053 -4.609934 -31.149460 -1.400299 19.007119 3.735137 -3.713062 1.538085 0.509654 0.982352 1.528030 0.553073 0.974645 7.463553 0.831310 -6.457178 13.401424 0.615328 -14.065475 0.000002 0.000001 -0.000000 0.000002 0.000001 -0.000000 0.000002 0.000001 -0.000000 1.138063 -3.491677 -2.377051 -28.272899 -8.630617 -53.908538 0.000023 -124.391555 0.000030 3.530126 -9.419825 18.792499 2.092863 4.947791 -46.064435 5.220660 6.678766 -76.003565 2.704742 5.473690 -52.565119 0.000001 -0.000001 0.000000 2.825142 10.329743 0.827374 6.817478 15.268497 2.201413 16.493899 15.543820 -13.682343 -0.000002 -0.000000 -0.000001 2.622349 5.409898 -51.696250 5.986516 6.823050 -82.511656 3.423550 5.953028 -59.776053 0.000001 0.000000 0.000000 2.389470 5.219534 -50.118794 5.674821 6.775128 -79.879199 2.984479 5.675920 -55.444078 -0.000001 0.000000 -0.000001 3.934128 6.575426 -48.514458 5.282896 2.607192 -76.579275 2.606548 5.397449 -51.528542 -0.000001 -0.000003 -0.000000 2.413708 19.811204 -8.386661 -18.824104 18.149337 65.993800 -0.000024 122.019035 0.000015 0.774509 13.280291 -25.952248 8.473296 -6.779632 102.897497 9.760544 -6.356202 113.927733 9.819568 -6.540606 113.765092 -0.000001 -0.000002 -0.000003 32.408414 -13.409008 14.972864 6.468317 -18.913443 -13.319965 60.020540 -57.623130 30.238060 0.000000 0.000002 0.000001 8.398445 -6.795923 102.075982 9.722796 -6.372658 113.587501 9.722817 -6.372702 113.587480 0.000003 0.000001 0.000000 5.565206 -7.132965 96.068182 8.903119 -6.668858 106.378721 8.762271 -6.408002 105.842824 -0.000001 -0.000000 0.000002 -0.217578 -9.282874 106.046712 7.927447 -6.879221 98.121364 7.927435 -6.879207 98.121336 0.000000 0.000000 0.000001 -40.073406 7.925216 23.729937 30.490856 -4.892857 6.384922 14.976530 -1.380732 -17.161873 -4.456811 0.000007 0.000001 -0.000000 0.000001 0.000000 -12.655337 -12.246489 -23.961825 50.137601 -1.739523 -5.236985 -25.405995 -6.748659 24.135355 -8.271529 0.000000 0.000000 -0.000000 0.000000 0.000000 
11.242762 175.065125 45.394665 -4.449011 -30.531987 -0.471915 18.032459 3.301607 -2.466393 1.939113 0.458196 0.387998 1.934913 0.478524 0.384552 7.465089 0.931851 -6.699170 13.698795 0.826435 -14.181091 -0.000000 -0.000001 0.000001 -0.000000 -0.000001 0.000001 -0.000000 -0.000001 0.000001 1.149075 -3.468614 -2.545516 -27.642252 -8.529221 -54.051836 0.000012 -124.745564 0.000026 4.138284 -9.594037 18.273548 2.092862 4.947792 -46.064428 5.220659 6.678766 -76.003565 2.704745 5.473692 -52.565119 -0.000000 -0.000001 -0.000001 2.825143 10.329742 0.827375 6.817482 15.268492 2.201410 16.493893 15.543822 -13.682346 -0.000002 0.000001 -0.000000 2.622348 5.409903 -51.696254 5.986518 6.823049 -82.511656 3.423548 5.953030 -59.776053 -0.000001 -0.000001 0.000001 2.389468 5.219537 -50.118794 5.674821 6.775128 -79.879199 2.984478 5.675919 -55.444071 0.000000 0.000001 0.000001 3.934130 6.575427 -48.514465 5.282894 2.607192 -76.579275 2.606547 5.397452 -51.528539 0.000001 -0.000002 -0.000003 2.251314 20.061056 -9.341536 -19.027358 17.531665 67.042828 0.000022 121.664630 -0.000052 -0.180639 12.971328 -26.004781 8.473298 -6.779635 102.897497 9.760547 -6.356199 113.927733 9.819564 -6.540611 113.765092 -0.000001 -0.000001 -0.000000 32.408411 -13.409013 14.972866 6.468315 -18.913444 -13.319962 60.020540 -57.623130 30.238057 0.000001 0.000000 -0.000000 8.398446 -6.795925 102.075982 9.722794 -6.372659 113.587508 9.722815 -6.372702 113.587480 0.000002 -0.000001 -0.000002 5.565204 -7.132971 96.068182 8.903112 -6.668857 106.378721 8.762276 -6.407996 105.842824 0.000004 0.000001 0.000003 -0.217579 -9.282885 106.046712 7.927444 -6.879218 98.121364 7.927437 -6.879205 98.121330 -0.000002 -0.000000 0.000000 -37.858386 9.255351 23.054899 23.764933 -7.184167 5.521839 18.159216 -1.631080 -14.958770 -3.162197 0.000002 -0.000003 -0.000000 -0.000003 -0.000000 -13.196001 -13.182730 -24.218406 49.503941 -0.539613 -3.810685 -28.984748 -6.795604 21.501811 -4.075389 0.000038 -0.000002 -0.000000 0.000003 0.000000 
